<svg width="122" height="20" viewBox="0 0 122 20" fill="none" xmlns="http://www.w3.org/2000/svg">
<g filter="url(#filter0_d_8_1523)">
<path d="M2.6875 15L2.04 1.35H5.225L5.2075 1.875C5.8375 1.68833 6.42667 1.55417 6.975 1.4725C7.535 1.39083 8.04833 1.35 8.515 1.35C9.44833 1.35 10.23 1.49 10.86 1.77C11.5017 2.03833 11.9858 2.39417 12.3125 2.8375C12.6392 3.26917 12.8025 3.74167 12.8025 4.255C12.8025 4.75667 12.6917 5.28167 12.47 5.83C12.2483 6.37833 11.8517 6.90333 11.28 7.405C10.72 7.90667 9.9325 8.33833 8.9175 8.7C7.91417 9.06167 6.625 9.30667 5.05 9.435L4.9275 15H2.6875ZM5.05 9.085C6.00667 8.89833 6.78833 8.6125 7.395 8.2275C8.01333 7.8425 8.49167 7.41083 8.83 6.9325C9.16833 6.45417 9.40167 5.98167 9.53 5.515C9.67 5.04833 9.74 4.64583 9.74 4.3075C9.74 3.82917 9.51833 3.42083 9.075 3.0825C8.64333 2.7325 7.90833 2.5575 6.87 2.5575C6.625 2.5575 6.3625 2.56917 6.0825 2.5925C5.8025 2.60417 5.505 2.63917 5.19 2.6975L5.05 9.085ZM15.0585 15L14.5685 1.35H17.8585L17.3685 15H15.0585ZM21.1322 15.1925L20.4672 13.005L27.3797 2.085L20.9922 4.185V1.35H31.1422L22.8822 12.7075L31.2122 13.6525V13.8975L21.1322 15.1925ZM33.3515 15.1925L32.6865 13.005L39.599 2.085L33.2115 4.185V1.35H43.3615L35.1015 12.7075L43.4315 13.6525V13.8975L33.3515 15.1925ZM54.9682 15.1925L52.9032 10.7825L45.9732 11.99L44.1532 15.1925H43.8907L48.6682 1.3675L51.4332 0.947499L57.0332 14.965L54.9682 15.1925ZM50.0507 4.6925L47.3382 9.54L52.6932 10.3625L50.0507 4.6925ZM65.2876 15L64.6401 1.35H67.8251L67.8076 1.875C68.4376 1.68833 69.0268 1.55417 69.5751 1.4725C70.1351 1.39083 70.6484 1.35 71.1151 1.35C72.0484 1.35 72.8301 1.49 73.4601 1.77C74.1018 2.03833 74.5859 2.39417 74.9126 2.8375C75.2393 3.26917 75.4026 3.74167 75.4026 4.255C75.4026 4.75667 75.2918 5.28167 75.0701 5.83C74.8484 6.37833 74.4518 6.90333 73.8801 7.405C73.3201 7.90667 72.5326 8.33833 71.5176 8.7C70.5143 9.06167 69.2251 9.30667 67.6501 9.435L67.5276 15H65.2876ZM67.6501 9.085C68.6068 8.89833 69.3884 8.6125 69.9951 8.2275C70.6134 7.8425 71.0918 7.41083 71.4301 6.9325C71.7684 6.45417 72.0018 5.98167 72.1301 5.515C72.2701 5.04833 72.3401 4.64583 72.3401 4.3075C72.3401 3.82917 72.1184 3.42083 71.6751 3.0825C71.2434 2.7325 70.5084 2.5575 69.4701 2.5575C69.2251 2.5575 68.9626 2.56917 68.6826 2.5925C68.4026 2.60417 68.1051 2.63917 67.7901 2.6975L67.6501 9.085ZM77.6586 15L77.1686 1.35H80.4586L79.9686 15H77.6586ZM83.7323 15.1925L83.0673 13.005L89.9798 2.085L83.5923 4.185V1.35H93.7423L85.4823 12.7075L93.8123 13.6525V13.8975L83.7323 15.1925ZM95.9516 15.1925L95.2866 13.005L102.199 2.085L95.8116 4.185V1.35H105.962L97.7016 12.7075L106.032 13.6525V13.8975L95.9516 15.1925ZM117.568 15.1925L115.503 10.7825L108.573 11.99L106.753 15.1925H106.491L111.268 1.3675L114.033 0.947499L119.633 14.965L117.568 15.1925ZM112.651 4.6925L109.938 9.54L115.293 10.3625L112.651 4.6925Z" fill="white"/>
<path d="M2.6875 15L2.18806 15.0237L2.21066 15.5H2.6875V15ZM2.04 1.35V0.849999H1.51572L1.54056 1.37369L2.04 1.35ZM5.225 1.35L5.72472 1.36666L5.74194 0.849999H5.225V1.35ZM5.2075 1.875L4.70778 1.85834L4.68468 2.5514L5.34954 2.3544L5.2075 1.875ZM6.975 1.4725L6.90285 0.97773L6.90134 0.977954L6.975 1.4725ZM10.86 1.77L10.6569 2.22702L10.6671 2.23129L10.86 1.77ZM12.3125 2.8375L11.9099 3.13412L11.9138 3.13922L12.3125 2.8375ZM12.47 5.83L12.0064 5.6426L12.47 5.83ZM11.28 7.405L10.9502 7.02917L10.9464 7.03258L11.28 7.405ZM8.9175 8.7L8.74967 8.229L8.74795 8.22963L8.9175 8.7ZM5.05 9.435L5.00939 8.93665L4.56004 8.97326L4.55012 9.424L5.05 9.435ZM4.9275 15V15.5H5.41662L5.42738 15.011L4.9275 15ZM5.05 9.085L4.55012 9.07404L4.53652 9.69462L5.14576 9.57574L5.05 9.085ZM7.395 8.2275L7.13071 7.80304L7.12709 7.80534L7.395 8.2275ZM9.53 5.515L9.05096 5.37129L9.0479 5.38242L9.53 5.515ZM9.075 3.0825L8.7601 3.47088L8.76581 3.47551L8.77166 3.47997L9.075 3.0825ZM6.0825 2.5925L6.10332 3.09207L6.11368 3.09163L6.12402 3.09077L6.0825 2.5925ZM5.19 2.6975L5.09896 2.20586L4.69903 2.27992L4.69012 2.68654L5.19 2.6975ZM3.18694 14.9763L2.53944 1.32631L1.54056 1.37369L2.18806 15.0237L3.18694 14.9763ZM2.04 1.85H5.225V0.849999H2.04V1.85ZM4.72528 1.33334L4.70778 1.85834L5.70722 1.89166L5.72472 1.36666L4.72528 1.33334ZM5.34954 2.3544C5.96111 2.17319 6.52721 2.04471 7.04866 1.96704L6.90134 0.977954C6.32612 1.06363 5.71389 1.20347 5.06546 1.3956L5.34954 2.3544ZM7.04715 1.96727C7.58809 1.88838 8.07692 1.85 8.515 1.85V0.849999C8.01975 0.849999 7.48191 0.893287 6.90285 0.977732L7.04715 1.96727ZM8.515 1.85C9.40174 1.85 10.1092 1.98348 10.6569 2.2269L11.0631 1.31309C10.3508 0.996519 9.49493 0.849999 8.515 0.849999V1.85ZM10.6671 2.23129C11.247 2.47378 11.6494 2.78047 11.91 3.1341L12.715 2.5409C12.3223 2.00786 11.7564 1.60289 11.0529 1.30871L10.6671 2.23129ZM11.9138 3.13922C12.1786 3.4891 12.3025 3.85677 12.3025 4.255H13.3025C13.3025 3.62656 13.0998 3.04923 12.7112 2.53578L11.9138 3.13922ZM12.3025 4.255C12.3025 4.68204 12.2083 5.14335 12.0064 5.6426L12.9336 6.01739C13.1751 5.41998 13.3025 4.83129 13.3025 4.255H12.3025ZM12.0064 5.6426C11.8212 6.10086 11.4794 6.56476 10.9502 7.02919L11.6098 7.78081C12.2239 7.24191 12.6755 6.6558 12.9336 6.01739L12.0064 5.6426ZM10.9464 7.03258C10.4508 7.4765 9.72791 7.88044 8.74968 8.22901L9.08533 9.17099C10.1371 8.79623 10.9892 8.33684 11.6136 7.77742L10.9464 7.03258ZM8.74795 8.22963C7.80093 8.57099 6.55936 8.81036 5.00939 8.93665L5.09061 9.93335C6.69064 9.80297 8.02741 9.55234 9.08705 9.17037L8.74795 8.22963ZM4.55012 9.424L4.42762 14.989L5.42738 15.011L5.54988 9.446L4.55012 9.424ZM4.9275 14.5H2.6875V15.5H4.9275V14.5ZM5.14576 9.57574C6.14315 9.38113 6.98853 9.07764 7.66291 8.64966L7.12709 7.80534C6.58813 8.14736 5.87018 8.41553 4.95425 8.59425L5.14576 9.57574ZM7.65928 8.65195C8.32083 8.24004 8.85329 7.76543 9.23821 7.22123L8.42179 6.64377C8.13004 7.05624 7.70583 7.44496 7.13072 7.80305L7.65928 8.65195ZM9.23821 7.22123C9.60321 6.7052 9.86553 6.18057 10.0121 5.64758L9.0479 5.38242C8.9378 5.78276 8.73346 6.20313 8.42179 6.64377L9.23821 7.22123ZM10.0089 5.65867C10.1573 5.16401 10.24 4.71072 10.24 4.3075H9.24C9.24 4.58095 9.18269 4.93265 9.05109 5.37133L10.0089 5.65867ZM10.24 4.3075C10.24 3.64617 9.92236 3.1002 9.37834 2.68502L8.77166 3.47997C9.11431 3.74147 9.24 4.01216 9.24 4.3075H10.24ZM9.3899 2.69412C8.8194 2.23155 7.93613 2.0575 6.87 2.0575V3.0575C7.88054 3.0575 8.46727 3.23345 8.7601 3.47088L9.3899 2.69412ZM6.87 2.0575C6.60931 2.0575 6.33283 2.06991 6.04098 2.09423L6.12402 3.09077C6.39217 3.06843 6.64069 3.0575 6.87 3.0575V2.0575ZM6.06168 2.09293C5.75506 2.10571 5.43394 2.14383 5.09896 2.20586L5.28104 3.18914C5.57607 3.13451 5.84994 3.10262 6.10332 3.09207L6.06168 2.09293ZM4.69012 2.68654L4.55012 9.07404L5.54988 9.09596L5.68988 2.70846L4.69012 2.68654ZM15.0585 15L14.5588 15.0179L14.5761 15.5H15.0585V15ZM14.5685 1.35V0.849999H14.0502L14.0688 1.36794L14.5685 1.35ZM17.8585 1.35L18.3582 1.36794L18.3768 0.849999H17.8585V1.35ZM17.3685 15V15.5H17.8509L17.8682 15.0179L17.3685 15ZM15.5582 14.9821L15.0682 1.33206L14.0688 1.36794L14.5588 15.0179L15.5582 14.9821ZM14.5685 1.85H17.8585V0.849999H14.5685V1.85ZM17.3588 1.33206L16.8688 14.9821L17.8682 15.0179L18.3582 1.36794L17.3588 1.33206ZM17.3685 14.5H15.0585V15.5H17.3685V14.5ZM21.1322 15.1925L20.6538 15.3379L20.7768 15.7423L21.1959 15.6884L21.1322 15.1925ZM20.4672 13.005L20.0448 12.7376L19.9222 12.9312L19.9888 13.1504L20.4672 13.005ZM27.3797 2.085L27.8022 2.35243L28.5477 1.17467L27.2236 1.61001L27.3797 2.085ZM20.9922 4.185H20.4922V4.87571L21.1484 4.65999L20.9922 4.185ZM20.9922 1.35V0.849999H20.4922V1.35H20.9922ZM31.1422 1.35L31.5466 1.64409L32.1241 0.849999H31.1422V1.35ZM22.8822 12.7075L22.4779 12.4134L21.973 13.1076L22.8259 13.2043L22.8822 12.7075ZM31.2122 13.6525H31.7122V13.206L31.2686 13.1557L31.2122 13.6525ZM31.2122 13.8975L31.2759 14.3934L31.7122 14.3374V13.8975H31.2122ZM21.6106 15.0471L20.9456 12.8596L19.9888 13.1504L20.6538 15.3379L21.6106 15.0471ZM20.8897 13.2724L27.8022 2.35243L26.9573 1.81757L20.0448 12.7376L20.8897 13.2724ZM27.2236 1.61001L20.8361 3.71001L21.1484 4.65999L27.5359 2.55999L27.2236 1.61001ZM21.4922 4.185V1.35H20.4922V4.185H21.4922ZM20.9922 1.85H31.1422V0.849999H20.9922V1.85ZM30.7379 1.05591L22.4779 12.4134L23.2866 13.0016L31.5466 1.64409L30.7379 1.05591ZM22.8259 13.2043L31.1559 14.1493L31.2686 13.1557L22.9386 12.2107L22.8259 13.2043ZM30.7122 13.6525V13.8975H31.7122V13.6525H30.7122ZM31.1485 13.4016L21.0685 14.6966L21.1959 15.6884L31.2759 14.3934L31.1485 13.4016ZM33.3515 15.1925L32.8731 15.3379L32.996 15.7423L33.4152 15.6884L33.3515 15.1925ZM32.6865 13.005L32.264 12.7376L32.1414 12.9312L32.2081 13.1504L32.6865 13.005ZM39.599 2.085L40.0214 2.35243L40.767 1.17467L39.4428 1.61001L39.599 2.085ZM33.2115 4.185H32.7115V4.87571L33.3676 4.65999L33.2115 4.185ZM33.2115 1.35V0.849999H32.7115V1.35H33.2115ZM43.3615 1.35L43.7658 1.64409L44.3433 0.849999H43.3615V1.35ZM35.1015 12.7075L34.6971 12.4134L34.1923 13.1076L35.0451 13.2043L35.1015 12.7075ZM43.4315 13.6525H43.9315V13.206L43.4878 13.1557L43.4315 13.6525ZM43.4315 13.8975L43.4952 14.3934L43.9315 14.3374V13.8975H43.4315ZM33.8298 15.0471L33.1648 12.8596L32.2081 13.1504L32.8731 15.3379L33.8298 15.0471ZM33.1089 13.2724L40.0214 2.35243L39.1765 1.81757L32.264 12.7376L33.1089 13.2724ZM39.4428 1.61001L33.0553 3.71001L33.3676 4.65999L39.7551 2.55999L39.4428 1.61001ZM33.7115 4.185V1.35H32.7115V4.185H33.7115ZM33.2115 1.85H43.3615V0.849999H33.2115V1.85ZM42.9571 1.05591L34.6971 12.4134L35.5058 13.0016L43.7658 1.64409L42.9571 1.05591ZM35.0451 13.2043L43.3751 14.1493L43.4878 13.1557L35.1578 12.2107L35.0451 13.2043ZM42.9315 13.6525V13.8975H43.9315V13.6525H42.9315ZM43.3678 13.4016L33.2878 14.6966L33.4152 15.6884L43.4952 14.3934L43.3678 13.4016ZM54.9682 15.1925L54.5154 15.4045L54.6672 15.7287L55.023 15.6895L54.9682 15.1925ZM52.9032 10.7825L53.356 10.5705L53.1939 10.2243L52.8174 10.2899L52.9032 10.7825ZM45.9732 11.99L45.8874 11.4974L45.655 11.5379L45.5385 11.743L45.9732 11.99ZM44.1532 15.1925V15.6925H44.4442L44.5879 15.4395L44.1532 15.1925ZM43.8907 15.1925L43.4181 15.0292L43.1889 15.6925H43.8907V15.1925ZM48.6682 1.3675L48.5931 0.873169L48.2943 0.918554L48.1956 1.20419L48.6682 1.3675ZM51.4332 0.947499L51.8975 0.762004L51.7503 0.393591L51.3581 0.45317L51.4332 0.947499ZM57.0332 14.965L57.088 15.462L57.7414 15.39L57.4975 14.7795L57.0332 14.965ZM50.0507 4.6925L50.5039 4.48129L50.0913 3.596L49.6144 4.44834L50.0507 4.6925ZM47.3382 9.54L46.9019 9.29584L46.5499 9.92479L47.2623 10.0342L47.3382 9.54ZM52.6932 10.3625L52.6173 10.8567L53.5413 10.9986L53.1464 10.1513L52.6932 10.3625ZM55.421 14.9805L53.356 10.5705L52.4504 10.9945L54.5154 15.4045L55.421 14.9805ZM52.8174 10.2899L45.8874 11.4974L46.059 12.4826L52.989 11.2751L52.8174 10.2899ZM45.5385 11.743L43.7185 14.9455L44.5879 15.4395L46.4079 12.237L45.5385 11.743ZM44.1532 14.6925H43.8907V15.6925H44.1532V14.6925ZM44.3633 15.3558L49.1408 1.53081L48.1956 1.20419L43.4181 15.0292L44.3633 15.3558ZM48.7433 1.86183L51.5083 1.44183L51.3581 0.45317L48.5931 0.873169L48.7433 1.86183ZM50.9689 1.13299L56.5689 15.1505L57.4975 14.7795L51.8975 0.762004L50.9689 1.13299ZM56.9785 14.468L54.9134 14.6955L55.023 15.6895L57.088 15.462L56.9785 14.468ZM49.6144 4.44834L46.9019 9.29584L47.7745 9.78416L50.487 4.93666L49.6144 4.44834ZM47.2623 10.0342L52.6173 10.8567L52.7691 9.8683L47.4141 9.0458L47.2623 10.0342ZM53.1464 10.1513L50.5039 4.48129L49.5975 4.90371L52.24 10.5737L53.1464 10.1513ZM65.2876 15L64.7882 15.0237L64.8108 15.5H65.2876V15ZM64.6401 1.35V0.849999H64.1158L64.1407 1.37369L64.6401 1.35ZM67.8251 1.35L68.3248 1.36666L68.342 0.849999H67.8251V1.35ZM67.8076 1.875L67.3079 1.85834L67.2848 2.5514L67.9496 2.3544L67.8076 1.875ZM69.5751 1.4725L69.5029 0.97773L69.5014 0.977954L69.5751 1.4725ZM73.4601 1.77L73.257 2.22702L73.2672 2.23129L73.4601 1.77ZM74.9126 2.8375L74.51 3.13412L74.5139 3.13922L74.9126 2.8375ZM75.0701 5.83L74.6065 5.6426L75.0701 5.83ZM73.8801 7.405L73.5503 7.02917L73.5465 7.03258L73.8801 7.405ZM71.5176 8.7L71.3498 8.229L71.348 8.22963L71.5176 8.7ZM67.6501 9.435L67.6095 8.93665L67.1601 8.97326L67.1502 9.424L67.6501 9.435ZM67.5276 15V15.5H68.0167L68.0275 15.011L67.5276 15ZM67.6501 9.085L67.1502 9.07404L67.1366 9.69462L67.7458 9.57574L67.6501 9.085ZM69.9951 8.2275L69.7308 7.80304L69.7272 7.80534L69.9951 8.2275ZM72.1301 5.515L71.6511 5.37129L71.648 5.38242L72.1301 5.515ZM71.6751 3.0825L71.3602 3.47088L71.3659 3.47551L71.3718 3.47997L71.6751 3.0825ZM68.6826 2.5925L68.7034 3.09207L68.7138 3.09163L68.7241 3.09077L68.6826 2.5925ZM67.7901 2.6975L67.6991 2.20586L67.2991 2.27992L67.2902 2.68654L67.7901 2.6975ZM65.787 14.9763L65.1395 1.32631L64.1407 1.37369L64.7882 15.0237L65.787 14.9763ZM64.6401 1.85H67.8251V0.849999H64.6401V1.85ZM67.3254 1.33334L67.3079 1.85834L68.3073 1.89166L68.3248 1.36666L67.3254 1.33334ZM67.9496 2.3544C68.5612 2.17319 69.1273 2.04471 69.6488 1.96704L69.5014 0.977954C68.9262 1.06363 68.314 1.20347 67.6656 1.3956L67.9496 2.3544ZM69.6472 1.96727C70.1882 1.88838 70.677 1.85 71.1151 1.85V0.849999C70.6199 0.849999 70.082 0.893287 69.5029 0.977732L69.6472 1.96727ZM71.1151 1.85C72.0018 1.85 72.7093 1.98348 73.257 2.2269L73.6632 1.31309C72.9509 0.996519 72.095 0.849999 71.1151 0.849999V1.85ZM73.2672 2.23129C73.8471 2.47378 74.2495 2.78047 74.5101 3.1341L75.3151 2.5409C74.9224 2.00786 74.3565 1.60289 73.653 1.30871L73.2672 2.23129ZM74.5139 3.13922C74.7787 3.4891 74.9026 3.85677 74.9026 4.255H75.9026C75.9026 3.62656 75.6999 3.04923 75.3113 2.53578L74.5139 3.13922ZM74.9026 4.255C74.9026 4.68204 74.8084 5.14335 74.6065 5.6426L75.5337 6.01739C75.7752 5.41998 75.9026 4.83129 75.9026 4.255H74.9026ZM74.6065 5.6426C74.4213 6.10086 74.0795 6.56476 73.5503 7.02919L74.2099 7.78081C74.824 7.24191 75.2756 6.6558 75.5337 6.01739L74.6065 5.6426ZM73.5465 7.03258C73.0509 7.4765 72.328 7.88044 71.3498 8.22901L71.6854 9.17099C72.7372 8.79623 73.5893 8.33684 74.2137 7.77742L73.5465 7.03258ZM71.348 8.22963C70.401 8.57099 69.1595 8.81036 67.6095 8.93665L67.6907 9.93335C69.2907 9.80297 70.6275 9.55234 71.6871 9.17037L71.348 8.22963ZM67.1502 9.424L67.0277 14.989L68.0275 15.011L68.15 9.446L67.1502 9.424ZM67.5276 14.5H65.2876V15.5H67.5276V14.5ZM67.7458 9.57574C68.7432 9.38113 69.5886 9.07764 70.263 8.64966L69.7272 7.80534C69.1882 8.14736 68.4703 8.41553 67.5543 8.59425L67.7458 9.57574ZM70.2594 8.65195C70.9209 8.24004 71.4534 7.76543 71.8383 7.22123L71.0219 6.64377C70.7301 7.05624 70.3059 7.44496 69.7308 7.80305L70.2594 8.65195ZM71.8383 7.22123C72.2033 6.7052 72.4656 6.18057 72.6122 5.64758L71.648 5.38242C71.5379 5.78276 71.3336 6.20313 71.0219 6.64377L71.8383 7.22123ZM72.609 5.65867C72.7574 5.16401 72.8401 4.71072 72.8401 4.3075H71.8401C71.8401 4.58095 71.7828 4.93265 71.6512 5.37133L72.609 5.65867ZM72.8401 4.3075C72.8401 3.64617 72.5225 3.1002 71.9784 2.68502L71.3718 3.47997C71.7144 3.74147 71.8401 4.01216 71.8401 4.3075H72.8401ZM71.99 2.69412C71.4195 2.23155 70.5362 2.0575 69.4701 2.0575V3.0575C70.4806 3.0575 71.0674 3.23345 71.3602 3.47088L71.99 2.69412ZM69.4701 2.0575C69.2094 2.0575 68.9329 2.06991 68.6411 2.09423L68.7241 3.09077C68.9923 3.06843 69.2408 3.0575 69.4701 3.0575V2.0575ZM68.6618 2.09293C68.3552 2.10571 68.034 2.14383 67.6991 2.20586L67.8811 3.18914C68.1762 3.13451 68.45 3.10262 68.7034 3.09207L68.6618 2.09293ZM67.2902 2.68654L67.1502 9.07404L68.15 9.09596L68.29 2.70846L67.2902 2.68654ZM77.6586 15L77.1589 15.0179L77.1762 15.5H77.6586V15ZM77.1686 1.35V0.849999H76.6503L76.6689 1.36794L77.1686 1.35ZM80.4586 1.35L80.9583 1.36794L80.9769 0.849999H80.4586V1.35ZM79.9686 15V15.5H80.451L80.4683 15.0179L79.9686 15ZM78.1583 14.9821L77.6683 1.33206L76.6689 1.36794L77.1589 15.0179L78.1583 14.9821ZM77.1686 1.85H80.4586V0.849999H77.1686V1.85ZM79.9589 1.33206L79.4689 14.9821L80.4683 15.0179L80.9583 1.36794L79.9589 1.33206ZM79.9686 14.5H77.6586V15.5H79.9686V14.5ZM83.7323 15.1925L83.2539 15.3379L83.3769 15.7423L83.796 15.6884L83.7323 15.1925ZM83.0673 13.005L82.6449 12.7376L82.5223 12.9312L82.5889 13.1504L83.0673 13.005ZM89.9798 2.085L90.4023 2.35243L91.1478 1.17467L89.8237 1.61001L89.9798 2.085ZM83.5923 4.185H83.0923V4.87571L83.7485 4.65999L83.5923 4.185ZM83.5923 1.35V0.849999H83.0923V1.35H83.5923ZM93.7423 1.35L94.1467 1.64409L94.7242 0.849999H93.7423V1.35ZM85.4823 12.7075L85.078 12.4134L84.5731 13.1076L85.426 13.2043L85.4823 12.7075ZM93.8123 13.6525H94.3123V13.206L93.8687 13.1557L93.8123 13.6525ZM93.8123 13.8975L93.876 14.3934L94.3123 14.3374V13.8975H93.8123ZM84.2107 15.0471L83.5457 12.8596L82.5889 13.1504L83.2539 15.3379L84.2107 15.0471ZM83.4898 13.2724L90.4023 2.35243L89.5574 1.81757L82.6449 12.7376L83.4898 13.2724ZM89.8237 1.61001L83.4362 3.71001L83.7485 4.65999L90.136 2.55999L89.8237 1.61001ZM84.0923 4.185V1.35H83.0923V4.185H84.0923ZM83.5923 1.85H93.7423V0.849999H83.5923V1.85ZM93.338 1.05591L85.078 12.4134L85.8867 13.0016L94.1467 1.64409L93.338 1.05591ZM85.426 13.2043L93.756 14.1493L93.8687 13.1557L85.5387 12.2107L85.426 13.2043ZM93.3123 13.6525V13.8975H94.3123V13.6525H93.3123ZM93.7486 13.4016L83.6686 14.6966L83.796 15.6884L93.876 14.3934L93.7486 13.4016ZM95.9516 15.1925L95.4732 15.3379L95.5961 15.7423L96.0153 15.6884L95.9516 15.1925ZM95.2866 13.005L94.8641 12.7376L94.7415 12.9312L94.8082 13.1504L95.2866 13.005ZM102.199 2.085L102.622 2.35243L103.367 1.17467L102.043 1.61001L102.199 2.085ZM95.8116 4.185H95.3116V4.87571L95.9677 4.65999L95.8116 4.185ZM95.8116 1.35V0.849999H95.3116V1.35H95.8116ZM105.962 1.35L106.366 1.64409L106.943 0.849999H105.962V1.35ZM97.7016 12.7075L97.2972 12.4134L96.7924 13.1076L97.6452 13.2043L97.7016 12.7075ZM106.032 13.6525H106.532V13.206L106.088 13.1557L106.032 13.6525ZM106.032 13.8975L106.095 14.3934L106.532 14.3374V13.8975H106.032ZM96.4299 15.0471L95.7649 12.8596L94.8082 13.1504L95.4732 15.3379L96.4299 15.0471ZM95.709 13.2724L102.622 2.35243L101.777 1.81757L94.8641 12.7376L95.709 13.2724ZM102.043 1.61001L95.6554 3.71001L95.9677 4.65999L102.355 2.55999L102.043 1.61001ZM96.3116 4.185V1.35H95.3116V4.185H96.3116ZM95.8116 1.85H105.962V0.849999H95.8116V1.85ZM105.557 1.05591L97.2972 12.4134L98.1059 13.0016L106.366 1.64409L105.557 1.05591ZM97.6452 13.2043L105.975 14.1493L106.088 13.1557L97.7579 12.2107L97.6452 13.2043ZM105.532 13.6525V13.8975H106.532V13.6525H105.532ZM105.968 13.4016L95.8878 14.6966L96.0153 15.6884L106.095 14.3934L105.968 13.4016ZM117.568 15.1925L117.115 15.4045L117.267 15.7287L117.623 15.6895L117.568 15.1925ZM115.503 10.7825L115.956 10.5705L115.794 10.2243L115.417 10.2899L115.503 10.7825ZM108.573 11.99L108.487 11.4974L108.255 11.5379L108.139 11.743L108.573 11.99ZM106.753 15.1925V15.6925H107.044L107.188 15.4395L106.753 15.1925ZM106.491 15.1925L106.018 15.0292L105.789 15.6925H106.491V15.1925ZM111.268 1.3675L111.193 0.873169L110.894 0.918554L110.796 1.20419L111.268 1.3675ZM114.033 0.947499L114.498 0.762004L114.35 0.393591L113.958 0.45317L114.033 0.947499ZM119.633 14.965L119.688 15.462L120.342 15.39L120.098 14.7795L119.633 14.965ZM112.651 4.6925L113.104 4.48129L112.691 3.596L112.214 4.44834L112.651 4.6925ZM109.938 9.54L109.502 9.29584L109.15 9.92479L109.862 10.0342L109.938 9.54ZM115.293 10.3625L115.217 10.8567L116.141 10.9986L115.746 10.1513L115.293 10.3625ZM118.021 14.9805L115.956 10.5705L115.05 10.9945L117.115 15.4045L118.021 14.9805ZM115.417 10.2899L108.487 11.4974L108.659 12.4826L115.589 11.2751L115.417 10.2899ZM108.139 11.743L106.319 14.9455L107.188 15.4395L109.008 12.237L108.139 11.743ZM106.753 14.6925H106.491V15.6925H106.753V14.6925ZM106.963 15.3558L111.741 1.53081L110.796 1.20419L106.018 15.0292L106.963 15.3558ZM111.343 1.86183L114.108 1.44183L113.958 0.45317L111.193 0.873169L111.343 1.86183ZM113.569 1.13299L119.169 15.1505L120.098 14.7795L114.498 0.762004L113.569 1.13299ZM119.579 14.468L117.514 14.6955L117.623 15.6895L119.688 15.462L119.579 14.468ZM112.214 4.44834L109.502 9.29584L110.375 9.78416L113.087 4.93666L112.214 4.44834ZM109.862 10.0342L115.217 10.8567L115.369 9.8683L110.014 9.0458L109.862 10.0342ZM115.746 10.1513L113.104 4.48129L112.198 4.90371L114.84 10.5737L115.746 10.1513Z" fill="#190B0B"/>
</g>
<defs>
<filter id="filter0_d_8_1523" x="0.0400085" y="0.94751" width="121.593" height="18.245" filterUnits="userSpaceOnUse" color-interpolation-filters="sRGB">
<feFlood flood-opacity="0" result="BackgroundImageFix"/>
<feColorMatrix in="SourceAlpha" type="matrix" values="0 0 0 0 0 0 0 0 0 0 0 0 0 0 0 0 0 0 127 0" result="hardAlpha"/>
<feOffset dy="2"/>
<feGaussianBlur stdDeviation="1"/>
<feComposite in2="hardAlpha" operator="out"/>
<feColorMatrix type="matrix" values="0 0 0 0 0 0 0 0 0 0 0 0 0 0 0 0 0 0 0.25 0"/>
<feBlend mode="normal" in2="BackgroundImageFix" result="effect1_dropShadow_8_1523"/>
<feBlend mode="normal" in="SourceGraphic" in2="effect1_dropShadow_8_1523" result="shape"/>
</filter>
</defs>
</svg>
