<svg width="15" height="15" viewBox="0 0 15 15" fill="none" xmlns="http://www.w3.org/2000/svg">
<g clip-path="url(#clip0_12_71)">
<path d="M1.13626 3.25801L7.22282 14.536C7.33064 14.7354 7.66939 14.7354 7.7772 14.536L9.81251 10.7648C9.77095 10.7675 9.7297 10.7708 9.68751 10.7708C9.19023 10.7708 8.71332 10.5799 8.36168 10.2399C8.01005 9.90004 7.81251 9.43902 7.81251 8.95832C7.81251 8.47761 8.01005 8.0166 8.36168 7.67669C8.71332 7.33678 9.19023 7.14582 9.68751 7.14582C10.0106 7.14587 10.3281 7.22675 10.6092 7.38058C10.8904 7.53441 11.1256 7.75596 11.2919 8.02367L13.8638 3.25831C13.8828 3.22287 13.8945 3.18414 13.898 3.14434C13.9015 3.10454 13.8969 3.06446 13.8843 3.02641C13.8717 2.98836 13.8515 2.95309 13.8247 2.92264C13.798 2.89219 13.7652 2.86716 13.7284 2.84898C11.7834 1.89168 9.68782 1.40624 7.50001 1.40624C5.3122 1.40624 3.21657 1.89168 1.27157 2.84899C1.23481 2.86716 1.20213 2.89218 1.17541 2.9226C1.14869 2.95303 1.12846 2.98827 1.11589 3.02628C1.10331 3.0643 1.09864 3.10434 1.10213 3.14411C1.10563 3.18388 1.11723 3.22259 1.13626 3.25801Z" fill="#EA9860"/>
<path d="M9.68749 7.14584C9.19021 7.14584 8.7133 7.3368 8.36167 7.67671C8.01004 8.01662 7.8125 8.47764 7.8125 8.95834C7.8125 9.43905 8.01004 9.90006 8.36167 10.24C8.7133 10.5799 9.19021 10.7708 9.6875 10.7708C9.72968 10.7708 9.77093 10.7675 9.81249 10.7648L11.2919 8.0237C11.1255 7.75598 10.8904 7.53444 10.6092 7.38061C10.3281 7.22678 10.0105 7.1459 9.68749 7.14584Z" fill="#C94F49"/>
<path d="M7.8125 5.93751C7.8125 5.61704 7.6808 5.3097 7.44638 5.08309C7.21196 4.85648 6.89402 4.72918 6.5625 4.72918C6.23098 4.72918 5.91304 4.85648 5.67862 5.08309C5.4442 5.3097 5.3125 5.61704 5.3125 5.93751C5.3125 6.09619 5.34483 6.25332 5.40765 6.39992C5.47047 6.54652 5.56254 6.67973 5.67862 6.79193C5.79469 6.90414 5.93249 6.99314 6.08415 7.05386C6.2358 7.11459 6.39835 7.14584 6.5625 7.14584C6.72665 7.14584 6.8892 7.11459 7.04085 7.05386C7.19251 6.99314 7.33031 6.90414 7.44638 6.79193C7.56246 6.67973 7.65453 6.54652 7.71735 6.39992C7.78017 6.25332 7.8125 6.09619 7.8125 5.93751Z" fill="#C94F49"/>
<path d="M7.49999 0.802078C9.78749 0.802077 11.9781 1.30958 14.0122 2.31068C14.2338 2.41976 14.4015 2.60948 14.4784 2.8381C14.5165 2.9513 14.5312 3.07064 14.5215 3.18931C14.5119 3.30798 14.4782 3.42366 14.4223 3.52974C14.3665 3.63582 14.2895 3.73022 14.1959 3.80755C14.1023 3.88489 13.9938 3.94364 13.8767 3.98046C13.6402 4.05481 13.3829 4.0353 13.1612 3.92622C11.3937 3.05562 9.48874 2.61458 7.49999 2.61458C5.51124 2.61458 3.60655 3.05562 1.83874 3.92622C1.729 3.98024 1.60934 4.01282 1.48657 4.02213C1.36381 4.03143 1.24035 4.01727 1.12325 3.98046C1.00614 3.94364 0.897688 3.88489 0.804073 3.80755C0.71046 3.73022 0.633519 3.63582 0.577646 3.52974C0.521772 3.42366 0.48806 3.30799 0.478434 3.18931C0.468807 3.07064 0.483456 2.9513 0.521542 2.8381C0.559628 2.7249 0.620408 2.62006 0.700409 2.52956C0.78041 2.43907 0.878066 2.36469 0.987802 2.31068C3.02186 1.30988 5.2128 0.802078 7.49999 0.802078Z" fill="#DDBE99"/>
</g>
<defs>
<clipPath id="clip0_12_71">
<rect width="15" height="14.5" fill="white" transform="translate(15 15) rotate(180)"/>
</clipPath>
</defs>
</svg>
